name rise38.3101peak57.3503fall81.6963.mot
datacolumns 19
datarows 32
range 18.38493400000000 18.43660300000000
endheader
time	ground_force1_vx	ground_force1_vy	ground_force1_vz	ground_force1_px	ground_force1_py	ground_force1_pz	ground_force2_vx	ground_force2_vy	ground_force2_vz	ground_force2_px	ground_force2_py	ground_force2_pz	ground_torque1_x	ground_torque1_y	ground_torque1_z	ground_torque2_x	ground_torque2_y	ground_torque2_z	
18.38493400000000	-35.31355000000000	807.21391500000004	69.61037500000000	0.12757700000000	0.00000000000000	0.10857700000000	-13.64091600000000	39.95295000000000	4.44460300000000	0.33328700000000	0.00000000000000	-0.09142200000000	0.00000000000000	27.28470000000000	0.00000000000000	0.00000000000000	0.47043300000000	0.00000000000000	
18.38660400000000	-35.15351900000000	803.60680700000000	69.32021400000001	0.12705300000000	0.00000000000000	0.10845900000000	-15.05674800000000	46.44961700000000	4.91558900000000	0.33705600000000	0.00000000000000	-0.09231700000000	0.00000000000000	27.03591300000000	0.00000000000000	0.00000000000000	0.53737700000000	0.00000000000000	
18.38826900000000	-35.01206800000000	799.86965999999995	68.98940800000000	0.12654400000000	0.00000000000000	0.10833500000000	-16.24548800000000	52.93869500000000	5.31418800000000	0.34073700000000	0.00000000000000	-0.09313500000000	0.00000000000000	26.78540500000000	0.00000000000000	0.00000000000000	0.60135900000000	0.00000000000000	
18.38994000000000	-34.89043200000000	796.00436300000001	68.61785200000000	0.12605300000000	0.00000000000000	0.10820400000000	-17.17225800000000	59.33312200000000	5.62861500000000	0.34432900000000	0.00000000000000	-0.09388700000000	0.00000000000000	26.53358100000000	0.00000000000000	0.00000000000000	0.66076800000000	0.00000000000000	
18.39159800000000	-34.78978300000000	792.01283599999999	68.20553800000000	0.12557900000000	0.00000000000000	0.10806700000000	-17.81671300000000	65.57099599999999	5.85169800000000	0.34783200000000	0.00000000000000	-0.09457900000000	0.00000000000000	26.28083400000000	0.00000000000000	0.00000000000000	0.71424800000000	0.00000000000000	
18.39327000000000	-34.71122800000000	787.89701700000001	67.75255600000000	0.12512300000000	0.00000000000000	0.10792300000000	-18.17283400000000	71.61715000000000	5.98083000000000	0.35124400000000	0.00000000000000	-0.09522000000000	0.00000000000000	26.02754400000000	0.00000000000000	0.00000000000000	0.76075300000000	0.00000000000000	
18.39493200000000	-34.65580100000000	783.65885300000002	67.25909500000000	0.12468600000000	0.00000000000000	0.10777300000000	-18.24759000000000	77.46225800000001	6.01756600000000	0.35456300000000	0.00000000000000	-0.09581500000000	0.00000000000000	25.77407800000000	0.00000000000000	0.00000000000000	0.79957200000000	0.00000000000000	
18.39660500000000	-34.62445900000000	779.30029300000001	66.72543899999999	0.12426700000000	0.00000000000000	0.10761500000000	-18.05874400000000	83.11996100000000	5.96693500000000	0.35779000000000	0.00000000000000	-0.09636900000000	0.00000000000000	25.52078300000000	0.00000000000000	0.00000000000000	0.83031400000000	0.00000000000000	
18.39826900000000	-34.61807300000000	774.82326999999998	66.15197000000001	0.12386700000000	0.00000000000000	0.10745000000000	-17.63215800000000	88.62257900000000	5.83659000000000	0.36092200000000	0.00000000000000	-0.09688700000000	0.00000000000000	25.26798800000000	0.00000000000000	0.00000000000000	0.85287900000000	0.00000000000000	
18.39993500000000	-34.63742700000000	770.22970299999997	65.53916300000000	0.12348600000000	0.00000000000000	0.10727900000000	-16.99888200000000	94.01602300000000	5.63588500000000	0.36395800000000	0.00000000000000	-0.09737200000000	0.00000000000000	25.01600400000000	0.00000000000000	0.00000000000000	0.86740000000000	0.00000000000000	
18.40160400000000	-34.68320800000000	765.52147800000000	64.88758600000000	0.12312400000000	0.00000000000000	0.10710000000000	-16.19232800000000	99.35445799999999	5.37497700000000	0.36689700000000	0.00000000000000	-0.09782800000000	0.00000000000000	24.76511700000000	0.00000000000000	0.00000000000000	0.87417600000000	0.00000000000000	
18.40327300000000	-34.75600500000000	760.70044900000005	64.19789800000000	0.12278000000000	0.00000000000000	0.10691400000000	-15.24571700000000	104.69519099999999	5.06400600000000	0.36973800000000	0.00000000000000	-0.09825800000000	0.00000000000000	24.51559300000000	0.00000000000000	0.00000000000000	0.87360200000000	0.00000000000000	
18.40493800000000	-34.85629900000000	755.76842299999998	63.47084700000000	0.12245600000000	0.00000000000000	0.10672100000000	-14.18998300000000	110.09416700000000	4.71242600000000	0.37248100000000	0.00000000000000	-0.09866500000000	0.00000000000000	24.26767400000000	0.00000000000000	0.00000000000000	0.86609600000000	0.00000000000000	
18.40660600000000	-34.98446500000000	750.72715800000003	62.70726400000000	0.12214900000000	0.00000000000000	0.10652000000000	-13.05219900000000	115.60229600000000	4.32849300000000	0.37512300000000	0.00000000000000	-0.09905000000000	0.00000000000000	24.02157700000000	0.00000000000000	0.00000000000000	0.85204200000000	0.00000000000000	
18.40826600000000	-35.14075900000000	745.57835200000000	61.90806700000000	0.12186000000000	0.00000000000000	0.10631300000000	-11.85456100000000	121.26277600000000	3.91894100000000	0.37766500000000	0.00000000000000	-0.09941700000000	0.00000000000000	23.77749200000000	0.00000000000000	0.00000000000000	0.83174200000000	0.00000000000000	
18.40993400000000	-35.32532100000000	740.32364399999994	61.07425000000000	0.12158900000000	0.00000000000000	0.10609900000000	-10.61391900000000	127.10942100000000	3.48881800000000	0.38010600000000	0.00000000000000	-0.09976600000000	0.00000000000000	23.53558800000000	0.00000000000000	0.00000000000000	0.80537600000000	0.00000000000000	
18.41160600000000	-35.53816800000000	734.96460200000001	60.20688600000000	0.12133500000000	0.00000000000000	0.10587700000000	-9.34177700000000	133.16594400000000	3.04148400000000	0.38244600000000	0.00000000000000	-0.10010000000000	0.00000000000000	23.29600200000000	0.00000000000000	0.00000000000000	0.77299400000000	0.00000000000000	
18.41326800000000	-35.77919100000000	729.50272199999995	59.30711700000000	0.12109600000000	0.00000000000000	0.10564900000000	-8.04468800000000	139.44607900000000	2.57873500000000	0.38468500000000	0.00000000000000	-0.10041900000000	0.00000000000000	23.05885000000000	0.00000000000000	0.00000000000000	0.73450400000000	0.00000000000000	
18.41493100000000	-36.04815300000000	723.93942400000003	58.37615900000000	0.12087300000000	0.00000000000000	0.10541400000000	-6.72494000000000	145.95437400000000	2.10101200000000	0.38682200000000	0.00000000000000	-0.10072600000000	0.00000000000000	22.82421900000000	0.00000000000000	0.00000000000000	0.68969200000000	0.00000000000000	
18.41660600000000	-36.34468500000000	718.27605000000005	57.41528800000000	0.12066500000000	0.00000000000000	0.10517300000000	-5.38143000000000	152.68747800000000	1.60768300000000	0.38885800000000	0.00000000000000	-0.10102000000000	0.00000000000000	22.59217200000000	0.00000000000000	0.00000000000000	0.63823400000000	0.00000000000000	
18.41826800000000	-36.66828500000000	712.51385900000002	56.42584300000000	0.12047000000000	0.00000000000000	0.10492400000000	-4.01061500000000	159.63572700000000	1.09734200000000	0.39079300000000	0.00000000000000	-0.10130400000000	0.00000000000000	22.36274600000000	0.00000000000000	0.00000000000000	0.57973000000000	0.00000000000000	
18.41993600000000	-37.01831800000000	706.65403000000003	55.40922200000000	0.12028700000000	0.00000000000000	0.10467000000000	-2.60747600000000	166.78485499999999	0.56812000000000	0.39262700000000	0.00000000000000	-0.10157800000000	0.00000000000000	22.13595100000000	0.00000000000000	0.00000000000000	0.51373600000000	0.00000000000000	
18.42160400000000	-37.39401100000000	700.69765700000005	54.36686900000000	0.12011500000000	0.00000000000000	0.10440900000000	-1.16639600000000	174.11768799999999	0.01796400000000	0.39436200000000	0.00000000000000	-0.10184300000000	0.00000000000000	21.91177600000000	0.00000000000000	0.00000000000000	0.43979200000000	0.00000000000000	
18.42326300000000	-37.79445900000000	694.64575500000001	53.30028300000000	0.11995400000000	0.00000000000000	0.10414300000000	0.31807300000000	181.61568900000000	-0.55511400000000	0.39599700000000	0.00000000000000	-0.10210000000000	0.00000000000000	21.69018400000000	0.00000000000000	0.00000000000000	0.35745500000000	0.00000000000000	
18.42493200000000	-38.21862000000000	688.49925599999995	52.21099900000000	0.11980200000000	0.00000000000000	0.10387000000000	1.85060900000000	189.26028199999999	-1.15284200000000	0.39753400000000	0.00000000000000	-0.10234900000000	0.00000000000000	21.47111800000000	0.00000000000000	0.00000000000000	0.26632700000000	0.00000000000000	
18.42660000000000	-38.66532000000000	682.25901699999997	51.10059700000000	0.11965700000000	0.00000000000000	0.10359200000000	3.43468600000000	197.03388100000001	-1.77655000000000	0.39897400000000	0.00000000000000	-0.10259000000000	0.00000000000000	21.25449600000000	0.00000000000000	0.00000000000000	0.16607300000000	0.00000000000000	
18.42827400000000	-39.13325000000000	675.92582100000004	49.97068500000000	0.11951900000000	0.00000000000000	0.10330800000000	5.07230900000000	204.92062700000000	-2.42707900000000	0.40031800000000	0.00000000000000	-0.10282500000000	0.00000000000000	21.04021800000000	0.00000000000000	0.00000000000000	0.05643400000000	0.00000000000000	
18.42993900000000	-39.62097200000000	669.50038300000006	48.82290500000000	0.11938600000000	0.00000000000000	0.10302000000000	6.76391000000000	212.90682699999999	-3.10474400000000	0.40156700000000	0.00000000000000	-0.10305400000000	0.00000000000000	20.82816400000000	0.00000000000000	0.00000000000000	-0.06275800000000	0.00000000000000	
18.43160000000000	-40.12692300000000	662.98335999999995	47.65892100000000	0.11925600000000	0.00000000000000	0.10272600000000	8.50837500000000	220.98111800000001	-3.80934500000000	0.40272200000000	0.00000000000000	-0.10327700000000	0.00000000000000	20.61819500000000	0.00000000000000	0.00000000000000	-0.19158700000000	0.00000000000000	
18.43326700000000	-40.64941300000000	656.37535300000002	46.48041600000000	0.11912900000000	0.00000000000000	0.10242800000000	10.30317800000000	229.13440800000001	-4.54020200000000	0.40378500000000	0.00000000000000	-0.10349400000000	0.00000000000000	20.41015500000000	0.00000000000000	0.00000000000000	-0.33004700000000	0.00000000000000	
18.43493400000000	-41.18663300000000	649.67692199999999	45.28909100000000	0.11900200000000	0.00000000000000	0.10212500000000	12.14459200000000	237.35964300000001	-5.29622500000000	0.40475800000000	0.00000000000000	-0.10370600000000	0.00000000000000	20.20387300000000	0.00000000000000	0.00000000000000	-0.47805700000000	0.00000000000000	
18.43660300000000	-41.73665800000000	642.88859300000001	44.08665400000000	0.11887400000000	0.00000000000000	0.10181800000000	14.02794200000000	245.65144799999999	-6.07599300000000	0.40564200000000	0.00000000000000	-0.10391400000000	0.00000000000000	19.99916200000000	0.00000000000000	0.00000000000000	-0.63546100000000	0.00000000000000	
